<svg xmlns="http://www.w3.org/2000/svg" viewBox="0 0 734.62 769.97"><defs><style>.cls-1{fill:#1c75bc;}</style></defs><g id="Layer_2" data-name="Layer 2"><path class="cls-1" d="M444.52,170.11C490.9,160.41,557.32,155,620.57,155c98,0,161.29,18.33,205.57,59.29C862,246.66,882,296.25,882,352.31c0,95.95-59,159.56-133.88,185.43V541c54.82,19.4,87.5,71.15,104.36,146.62,23.2,101.34,40.06,171.41,54.82,199.45H812.43C800.84,866.56,785,804,765,713.47c-21.08-100.26-59-138-142.31-141.23H536.23V821.85c0,36-28.54,65.2-63.75,65.2h-28Zm91.71,331h93.83c98,0,160.24-55,160.24-138,0-93.79-66.42-134.76-163.41-135.84-44.27,0-75.9,4.31-90.66,8.62Z" transform="translate(-172.69 -155.02)"/><path class="cls-1" d="M746.38,361.28h0c-14-.85-28.72-2.63-38-3.94h0a23.17,23.17,0,0,1-16.7-10.93v0l-10.83-17.31a9.15,9.15,0,0,0-7.49-4.37l-25-.92-24.65-.9-.93-1.07A78.76,78.76,0,0,1,614.12,309h0v0h0A114.68,114.68,0,0,1,601,269.77c-2.07,3.71-4.6,8.53-7.31,14.4a226.23,226.23,0,0,0-18.09,58.45l-.18,1.15-.85.79s-.8.74-2.24,2.13-3.51,3.39-6,5.91c-5,5-11.89,12.06-19.06,20A283.16,283.16,0,0,0,522,404.5h0c-11.21,15.34-33.77,36-53.3,51.11,40.51,47.08,99.33,77.21,165.09,78.77,1.78-3.13,3.55-6.34,5.25-9.73h0c7.49-14.81,14-33.31,22.43-50.56s19-33.38,35-43.15c11.86-7.25,23.44-10.1,33.49-12.35s18.57-4,24.59-8.28c4-2.86,7.2-6.77,9.55-13.31s3.42-12.19,3.42-16.86c0-6-1.71-10.22-5-13.28S754,361.72,746.38,361.28Zm-67.47,6.13a7.13,7.13,0,0,1-2.81.58,7.25,7.25,0,0,1-5.14-2.16,7.54,7.54,0,0,1-1.58-2.35,7.43,7.43,0,0,1-.58-2.87h0a8.29,8.29,0,0,1,.15-1.5,7.54,7.54,0,0,1,2-3.76,7.17,7.17,0,0,1,5.14-2.2,7,7,0,0,1,2.81.59,7.51,7.51,0,0,1,4.41,6.87A7.4,7.4,0,0,1,678.91,367.41Z" transform="translate(-172.69 -155.02)"/><path class="cls-1" d="M620.4,306.58a81.5,81.5,0,0,0,6.38,9.72l17,.62c-2.8-9.2-5.41-21.12-7.47-31.46-1.08-5.44-2-10.35-2.67-14.2A94.27,94.27,0,0,0,620.4,306.58Z" transform="translate(-172.69 -155.02)"/><path class="cls-1" d="M307.39,900.48c7.18-7.19,17.44-14.19,24.61-19.28-64-11.56-81.56-52.91-124.94-91.76,5.52-1.77,11.52-8.09,19-9-21.31-31.31-34.76-65.8-53.36-99.4,11.75,2.19,22.5,3.88,33.41,7.9-15.39-35.64,13.74-96.23,38.38-121,3.41,13.47,9.67,26.79,10.65,41.38,24.82-32.44,39-62.15,85.5-58.94-2.31,6.64-1,17.81-3.33,24.09,19.06-4.11,42.94-21.86,53.12-38.07a38.08,38.08,0,0,0,3.57-7.23c.74,8.68,1.26,16.53,1.38,23.83.47,24.61-4,42.91-24.61,62.71-21.12,20.45-49,28.67-62.2,56.77-11,23.36-15.39,64.81,3.39,85.32,44,48.09,110.3-3.68,133.43-57.7l57.9,119.33C492,873.37,457.45,918.74,394.73,925c7.3-12.89,10.57-28.9,16.48-41.84C379.56,902,342.6,909.16,307.39,900.48Z" transform="translate(-172.69 -155.02)"/></g></svg>